<svg width="183" height="72" viewBox="0 0 183 72" fill="none" xmlns="http://www.w3.org/2000/svg">
<path fill-rule="evenodd" clip-rule="evenodd" d="M18.5016 57.8482H22.5336V40.629H18.5016V57.8482ZM33.2815 57.5899H36.8927V46.7256L52.0932 57.8482V40.8872H48.4921V51.5658L33.2815 40.629V57.5899ZM60.337 53.4196C62.3026 54.6438 64.6618 55.3514 67.191 55.3514C69.6546 55.3514 71.3827 54.6734 71.3827 53.1762C71.3827 51.8712 70.2805 51.36 68.3505 50.7883L65.2256 49.9205C62.3446 49.1027 60.1536 47.9081 60.1536 45.1625C60.1536 42.2258 63.4704 40.629 67.4367 40.629C69.8666 40.629 72.0812 41.1173 73.8111 41.9822V44.8947C72.0121 43.8319 70.0433 43.1002 67.514 43.1002C65.3366 43.1002 63.7093 43.7499 63.7093 45.1046C63.7093 46.3288 64.7308 46.8185 66.5297 47.3108L70.0113 48.2875C73.3853 49.2359 74.9334 50.7062 74.9334 53.125C74.9334 56.168 71.5848 57.8482 67.191 57.8482C64.3034 57.8482 61.8482 57.2025 60.337 56.3873V53.4196ZM84.3401 57.8482H88.3703V40.629H84.3401V57.8482ZM107.278 55.2424C111.822 55.2424 114.25 52.9125 114.25 49.2346C114.25 45.5296 111.82 43.2078 107.278 43.2078H102.785V55.2424H107.278ZM99.1166 40.629H107.413C113.799 40.629 117.928 43.992 117.928 49.2346C117.928 54.481 113.799 57.8482 107.413 57.8482H99.1166V40.629ZM138.084 40.629V43.2078H128.329V47.3511H137.079V49.9004H128.328V55.2424H138.084V57.8482H124.648V40.629H138.084ZM152.392 48.426H156.391C158.759 48.426 160.094 47.3875 160.094 45.7907C160.094 44.1938 158.759 43.154 156.391 43.154H152.392V48.4273V48.426ZM152.392 50.861V57.8482H148.832V40.629H156.458C160.807 40.629 163.62 42.4194 163.62 45.7907C163.62 48.6735 162.059 50.3295 158.732 50.7546L166.3 57.8482H162.251L154.924 50.8623H152.393L152.392 50.861ZM17.0931 23.6652C18.6699 23.2038 19.8983 21.8195 19.8983 19.916C19.8983 16.7439 17.0931 15.1 12.6053 15.1H5.06641V32.8075H13.3053C17.7932 32.8075 20.5984 31.0479 20.5984 27.732C20.5984 25.8567 19.1259 24.2128 17.0931 23.6652ZM8.60696 22.5407V17.6964H12.5716C15.0621 17.6964 16.3931 18.4174 16.3931 20.0895C16.3931 21.7617 15.0604 22.5407 12.5716 22.5407H8.60696ZM8.60696 25.0213H13.2345C15.6914 25.0213 17.0225 26.0007 17.0225 27.6163C17.0225 29.2023 15.6897 30.2126 13.2363 30.2126H8.60864V25.0199L8.60696 25.0213ZM37.0475 33.0955C42.2018 33.0955 45.6734 30.6148 45.6734 25.7705V15.1H42.0268V25.4235C42.0268 28.827 40.2734 30.4144 37.0475 30.4144C33.8216 30.4144 32.0699 28.827 32.0699 25.4235V15.1H28.4233V25.741C28.4233 30.6148 31.9285 33.0955 37.0475 33.0955ZM54.2589 31.5377C55.7666 32.404 58.2218 33.0955 61.096 33.0955C65.4796 33.0955 68.8098 31.3063 68.8098 28.0777C68.8098 25.5109 67.2683 23.9531 63.9012 22.9442L60.4312 21.9056C58.6425 21.3877 57.6261 20.8685 57.6261 19.5703C57.6261 18.1282 59.2382 17.4368 61.4124 17.4368C63.9365 17.4368 65.9003 18.2143 67.689 19.3403V16.2529C65.971 15.3313 63.7615 14.8121 61.3417 14.8121C57.3805 14.8121 54.0839 16.5139 54.0839 19.6281C54.0839 22.5407 56.258 23.8091 59.1322 24.6742L62.2537 25.597C64.1822 26.2024 65.2692 26.7513 65.2692 28.1356C65.2692 29.7216 63.5512 30.4426 61.096 30.4426C58.5719 30.4426 56.2227 29.692 54.2589 28.3952V31.5377ZM81.8396 15.1H78.1947V32.8063H81.8396V15.1ZM92.2425 32.7847H95.756V21.2653L110.544 33.0591V15.0731H107.041V26.3961L92.2425 14.8V32.7847ZM133.331 15.104V17.7556H123.864V22.0174H132.353V24.6392H123.864V30.132H133.331V32.8116H120.289V15.104H133.331ZM141.82 31.5256C143.328 32.3919 145.781 33.0834 148.657 33.0834C153.039 33.0834 156.372 31.2955 156.372 28.0656C156.372 25.4988 154.828 23.9423 151.463 22.9321L147.991 21.8949C146.202 21.3757 145.185 20.8563 145.185 19.5582C145.185 18.1161 146.797 17.4246 148.972 17.4246C151.496 17.4246 153.46 18.2035 155.248 19.3282V16.2422C153.53 15.3193 151.321 14.8 148.901 14.8C144.94 14.8 141.643 16.5018 141.643 19.6161C141.643 22.5285 143.818 23.7971 146.691 24.6621L149.813 25.5849C151.742 26.1903 152.828 26.7392 152.828 28.1235C152.828 29.7095 151.113 30.4305 148.656 30.4305C146.131 30.4305 143.782 29.6812 141.82 28.3831V31.5256ZM163.841 31.5256C165.349 32.3919 167.804 33.0834 170.678 33.0834C175.062 33.0834 178.392 31.2955 178.392 28.0656C178.392 25.4988 176.849 23.9423 173.483 22.9321L170.011 21.8949C168.224 21.3757 167.207 20.8563 167.207 19.5582C167.207 18.1161 168.82 17.4246 170.993 17.4246C173.518 17.4246 175.482 18.2035 177.269 19.3282V16.2422C175.553 15.3193 173.344 14.8 170.924 14.8C166.961 14.8 163.666 16.5018 163.666 19.6161C163.666 22.5285 165.84 23.7971 168.714 24.6621L171.835 25.5849C173.764 26.1903 174.851 26.7392 174.851 28.1235C174.851 29.7095 173.133 30.4305 170.678 30.4305C168.154 30.4305 165.804 29.6812 163.841 28.3831V31.5256Z" fill="white"/>
</svg>
