<svg width="218" height="72" viewBox="0 0 218 72" fill="none" xmlns="http://www.w3.org/2000/svg">
<path d="M6.5 17.2667H21.4494C24.2969 17.2667 26.4325 17.9949 28.0144 19.2087C29.7545 20.6652 30.7037 22.7691 30.7037 25.3584C30.7037 28.3524 29.5173 30.2135 27.1444 31.3463V31.5082C30.3083 32.5601 32.1274 35.4731 32.1274 38.9526C32.1274 42.2702 30.8619 44.8595 28.8055 46.4779C27.0652 47.7725 24.8505 48.339 21.8449 48.339H6.5V17.2667ZM19.9465 29.4043C21.5284 29.4043 22.7149 28.5142 22.7149 26.6531C22.7149 24.8729 21.5284 23.9828 19.8674 23.9828H14.7261V29.3234H19.9465V29.4043ZM20.6584 41.4611C22.4776 41.4611 23.8223 40.3281 23.8223 38.3052C23.8223 36.1205 22.3985 35.1495 20.6584 35.1495H14.8051V41.542H20.6584V41.4611Z" fill="white"/>
<path d="M33.4717 17.2667H41.3024V48.4199H33.4717V17.2667Z" fill="white"/>
<path d="M42.8838 37.3344C42.8838 30.2945 47.3132 25.6013 54.1947 25.6013C61.0761 25.6013 65.4264 30.3754 65.4264 37.3344C65.4264 44.3743 61.0761 49.0675 54.1947 49.0675C47.3132 49.0675 42.8838 44.3743 42.8838 37.3344ZM57.5959 37.3344C57.5959 33.4504 56.4094 31.0228 54.0365 31.0228C51.6635 31.0228 50.5562 33.4504 50.5562 37.3344C50.5562 41.2184 51.6635 43.7269 54.0365 43.7269C56.4094 43.646 57.5959 41.2184 57.5959 37.3344Z" fill="white"/>
<path d="M66.2969 37.3344C66.2969 30.2945 70.7263 25.6013 77.6078 25.6013C84.4892 25.6013 88.7604 30.2945 88.7604 37.3344C88.7604 44.3743 84.4101 49.0675 77.5286 49.0675C70.7263 49.0675 66.2969 44.3743 66.2969 37.3344ZM81.0089 37.3344C81.0089 33.4504 79.8225 31.0228 77.4495 31.0228C75.0766 31.0228 73.9693 33.4504 73.9693 37.3344C73.9693 41.2184 75.0766 43.7269 77.4495 43.7269C79.8225 43.646 81.0089 41.2184 81.0089 37.3344Z" fill="white"/>
<path d="M90.3418 26.168H97.6187V29.4855H97.7768C99.2006 26.8962 101.178 25.5206 104.342 25.5206C107.11 25.5206 109.167 26.8962 110.195 29.3237H110.353C112.093 26.4107 114.387 25.5206 117.077 25.5206C122.139 25.5206 124.274 29.3237 124.274 34.4216V48.3394H116.681V35.7971C116.681 33.5315 115.969 32.0749 114.071 32.0749C112.173 32.0749 111.223 33.8551 111.223 36.2827V48.3394H103.63V35.7971C103.63 33.5315 102.918 32.0749 101.02 32.0749C99.1215 32.0749 98.1724 33.8551 98.1724 36.2827V48.3394H90.3418V26.168Z" fill="white"/>
<path d="M133.845 45.426H133.766V48.339H126.489V17.2667H134.083V28.4333H134.241C135.664 26.4913 137.642 25.4393 140.41 25.4393C145.869 25.4393 149.032 30.4562 149.032 37.1724C149.032 44.6977 145.631 49.0673 139.936 49.0673C137.563 49.0673 135.111 47.9345 133.845 45.426ZM141.202 37.0915C141.202 33.5311 139.936 31.1845 137.642 31.1845C135.269 31.1845 133.845 33.5311 133.845 37.0915C133.845 40.6519 135.348 42.9984 137.642 42.9984C139.936 42.9984 141.202 40.7328 141.202 37.0915Z" fill="white"/>
<path d="M149.901 37.2537C149.901 30.2947 154.41 25.5206 160.897 25.5206C164.139 25.5206 166.591 26.5725 168.49 28.4336C171.021 30.9421 172.128 34.8261 172.05 39.3575H157.495C157.812 42.1087 159.077 43.5653 161.371 43.5653C162.716 43.5653 163.902 42.9179 164.377 41.4613H171.733C170.467 46.5592 166.591 49.0677 161.133 49.0677C154.41 48.9868 149.901 44.2934 149.901 37.2537ZM157.495 34.907H164.456C164.298 32.2367 162.874 30.8612 161.054 30.8612C158.919 30.7803 157.733 32.3177 157.495 34.907Z" fill="white"/>
<path d="M180.671 29.9706H180.829C182.41 26.8958 184.468 25.682 187.077 25.682C187.71 25.682 188.106 25.763 188.343 25.9248V32.7218H188.185C183.677 31.9127 181.066 34.0975 181.066 39.1143V48.4198H173.394V26.1675H180.671V29.9706Z" fill="white"/>
<path d="M189.134 48.4193H196.491C196.806 49.3903 197.756 50.2804 199.575 50.2804C202.027 50.2804 202.897 48.7429 202.897 46.3964V44.778H202.739C201.552 46.2346 199.891 47.2865 197.518 47.2865C192.852 47.2865 188.739 43.7261 188.739 36.7671C188.739 30.3746 192.061 25.4387 197.123 25.4387C200.05 25.4387 201.79 26.6524 202.977 28.5135H203.135V26.086H210.411V45.3445C210.411 48.9049 209.225 51.6561 207.406 53.2743C205.508 54.9736 202.818 55.7019 199.733 55.7019C193.88 55.7828 189.847 53.3552 189.134 48.4193ZM203.214 36.4435C203.214 33.6923 201.948 31.4266 199.733 31.4266C197.598 31.4266 196.253 33.3686 196.253 36.4435C196.253 39.4374 197.598 41.5412 199.733 41.5412C201.869 41.5412 203.214 39.3565 203.214 36.4435Z" fill="white"/>
</svg>
