<svg width="105" height="72" viewBox="0 0 105 72" fill="none" xmlns="http://www.w3.org/2000/svg">
<path d="M21.4919 16.8462C18.1875 19.82 16.9847 26.5585 22.9417 30.4975L46.7066 46.7063L35.1838 20.4622C32.7692 14.2693 26.1636 12.9188 21.4919 16.8462Z" fill="white"/>
<path d="M41.9504 4.08688C38.0875 4.16512 32.2867 8.73827 34.8681 15.7216L46.7859 43.6636L50.9738 14.274C51.9429 6.97133 46.3837 3.60027 41.9504 4.08688Z" fill="white"/>
<path d="M52.8322 13.152H55.0857C55.0857 13.152 56.2891 13.152 56.4529 13.7164C55.5661 14.4364 53.1524 14.5266 53.4728 18.3722L57.2611 43.6585L69.0975 15.6434C71.5186 9.38801 66.4367 4.16389 61.9289 4.00424C61.7184 3.98922 61.507 3.97702 61.2882 3.97702C57.2422 3.9769 52.6056 6.90018 52.8322 13.152Z" fill="white"/>
<path d="M68.621 20.7006L57.4258 46.63L81.1837 30.3355C86.6603 26.474 85.777 20.3 82.7115 17.2483C81.4262 15.8119 79.0665 14.7024 76.5669 14.7024C73.6136 14.7018 70.4531 16.259 68.621 20.7006Z" fill="white"/>
<path d="M78.5245 34.0246L56.2129 49.5176H83.6849C89.3211 49.5176 92.9432 43.7404 91.3329 38.4389C90.2545 35.1066 87.064 32.4908 83.3607 32.487C81.8017 32.4876 80.1487 32.9544 78.5245 34.0246Z" fill="white"/>
<path d="M20.8523 49.5184H47.919L25.6017 34.0253C20.4459 30.7322 14.6486 32.6592 12.5557 38.1241C10.7816 44.38 15.2111 49.5184 20.8523 49.5184Z" fill="white"/>
<path d="M10.6865 60.7305C10.6865 63.3691 12.8563 68.172 21.1411 68.172C28.7795 68.172 31.1919 64.6876 31.1919 63.0899H25.2784C25.2784 63.0899 24.9976 65.2008 21.6617 65.2008C18.3237 65.2008 17.421 62.4309 17.421 60.8292C17.421 59.2336 18.3237 56.6134 21.6617 56.6134C24.9976 56.6134 25.2784 58.4511 25.2784 58.4511H31.1919C31.1919 56.8516 29.4218 53.4163 21.1411 53.4163C12.8563 53.4163 10.6865 58.5314 10.6865 60.7305Z" fill="white"/>
<path d="M72.7051 60.7305C72.7051 63.3691 74.877 68.172 83.1596 68.172C90.7972 68.172 93.2107 64.6876 93.2107 63.0899H87.3013C87.3013 63.0899 87.0191 65.2008 83.6825 65.2008C80.3441 65.2008 79.4404 62.4309 79.4404 60.8292C79.4404 59.2336 80.3441 56.6134 83.6825 56.6134C87.0191 56.6134 87.3013 58.4511 87.3013 58.4511H93.2107C93.2107 56.8516 91.4425 53.4163 83.1596 53.4163C74.8771 53.4163 72.7051 58.5314 72.7051 60.7305Z" fill="white"/>
<path d="M47.3532 53.6632V62.5955L40.4713 53.6632H32.7295V67.8111H38.0369V58.7762L44.7985 67.8111H52.6611V53.6632H47.3532Z" fill="white"/>
<path d="M64.3614 64.4312V64.4498H59.939V61.852H64.3614V61.8606C65.3056 61.8606 66.0688 62.4375 66.0688 63.1479C66.0688 63.8566 65.3056 64.4312 64.3614 64.4312ZM59.9796 56.4149H64.2407V56.4209C64.9627 56.4209 65.5481 56.8931 65.5481 57.4742C65.5481 58.0576 64.9627 58.5257 64.2407 58.5257V58.532H59.9796V56.4149ZM68.7047 60.2897C69.671 60.2897 71.6912 59.1746 71.6912 57.0144C71.6912 53.9384 65.9294 53.6632 65.0455 53.6632H54.4297V67.8111H65.0455C70.1514 67.8111 72.2024 66.2076 72.2024 63.5299C72.2024 60.8521 68.7047 60.2897 68.7047 60.2897Z" fill="white"/>
</svg>
