<svg width="366" height="72" viewBox="0 0 366 72" fill="none" xmlns="http://www.w3.org/2000/svg">
<path d="M42.5666 49.0151L32.6461 53.313V52.8846C30.669 53.3714 28.6467 53.6592 26.6102 53.7437C17.2817 53.6527 9.87424 48.7887 9.79062 43.0034V40.8544C12.8549 45.2922 19.0919 48.267 26.6102 48.1582C29.1525 48.267 31.7558 47.8652 33.941 47.2991L34.8042 45.1501C32.2099 45.9227 29.3807 46.4577 26.6102 46.4377C17.2817 46.4599 9.87424 41.5959 9.79062 35.7018V33.9835C12.8549 38.0861 19.0783 41.0609 26.6102 40.8566C29.9977 41.0609 33.3105 40.3505 36.0967 39.1384L36.5284 36.9894C33.8077 38.4213 30.2801 39.2516 26.608 39.1384C17.2841 39.2471 9.87875 34.3853 9.79289 28.3958V26.6775C12.8572 30.8733 19.0941 33.8481 26.6124 33.9813C30.8834 33.8481 34.9352 32.7248 38.2548 30.9732L38.6865 28.3958C35.6742 30.6202 31.2744 32.0543 26.6124 32.263C17.2817 32.0543 9.87424 27.1903 9.79062 21.092C9.8765 15.2933 17.2817 10.4315 26.6102 10.3516C32.1693 10.4293 37.3351 12.3718 40.4107 15.5065L40.709 16.0037L42.8829 16.0126L42.5666 15.5065C39.5068 11.3662 33.3918 8.63333 26.6102 8.63333C16.2898 8.63333 8.06641 14.301 8.06641 21.092V43.4341C8.42797 50.0608 16.4638 55.462 26.6102 55.462C33.3105 55.462 39.3328 52.8358 42.5643 49.0174L42.5666 49.0151Z" fill="white"/>
<path d="M38.5311 64.1333L42.0136 49.3925L32.0027 53.7282L38.0996 28.1449H26.3486L29.3948 15.5708H66.8215L63.7752 28.1449H51.5882L48.9782 35.0824L62.4691 29.4458L38.5311 64.1333ZM44.6258 46.3555L42.8858 55.0269L57.2467 33.3486L45.4959 38.5522L50.7182 26.4088H62.4691L64.6452 17.3068H30.6987L28.5226 26.4088H40.2735L34.6149 50.6912L44.6258 46.3555ZM100.976 36.794C100.802 39.1694 99.907 41.0431 98.2958 42.4084C96.6845 43.7737 94.5604 44.4574 91.9231 44.4574C89.0396 44.4574 86.7709 43.5028 85.1212 41.5959C83.4648 39.6911 82.6399 37.0715 82.6399 33.7437V32.3917C82.6399 30.2672 83.0218 28.3957 83.7834 26.7751C84.545 25.159 85.6341 23.9158 87.0511 23.0522C88.4657 22.1864 90.1107 21.7535 91.9864 21.7535C94.5806 21.7535 96.671 22.4373 98.2573 23.8026C99.8437 25.1679 100.761 27.0859 101.007 29.5524H96.375C96.2597 28.1271 95.8551 27.0926 95.1614 26.451C94.4654 25.8072 93.4078 25.4875 91.9864 25.4875C90.4407 25.4875 89.286 26.0314 88.5176 27.1192C87.7493 28.207 87.3561 29.8942 87.3357 32.1808V33.8481C87.3357 36.2368 87.7041 37.9817 88.4408 39.085C89.1775 40.1884 90.339 40.7389 91.9231 40.7389C93.3559 40.7389 94.4247 40.417 95.1298 39.7755C95.8348 39.1317 96.2371 38.1393 96.341 36.794H100.976ZM124.756 33.6061C124.756 35.7817 124.365 37.6887 123.58 39.327C122.799 40.9654 121.678 42.2308 120.22 43.1232C118.765 44.0112 117.093 44.4552 115.208 44.4552C113.344 44.4552 111.683 44.0157 110.218 43.1365C108.756 42.2574 107.624 40.9987 106.82 39.3648C106.017 37.7308 105.611 35.8527 105.599 33.726V32.6359C105.599 30.4603 105.999 28.5445 106.797 26.8906C107.595 25.2367 108.722 23.9668 110.18 23.0811C111.637 22.1975 113.303 21.7535 115.176 21.7535C117.052 21.7535 118.717 22.1975 120.175 23.0811C121.633 23.9691 122.76 25.2367 123.558 26.8906C124.355 28.5445 124.756 30.4537 124.756 32.6182V33.6061ZM120.06 32.6049C120.06 30.2872 119.637 28.5267 118.792 27.3213C117.947 26.1202 116.742 25.5164 115.176 25.5164C113.622 25.5164 112.422 26.1114 111.579 27.3013C110.734 28.489 110.306 30.2317 110.295 32.5294V33.6061C110.295 35.8616 110.718 37.6132 111.561 38.8564C112.408 40.0996 113.622 40.7234 115.208 40.7234C116.763 40.7234 117.958 40.124 118.792 38.9252C119.628 37.7264 120.048 35.9793 120.057 33.6816V32.6049H120.06ZM135.311 44.1533H130.676V22.0576H135.308V44.1533H135.311ZM160.155 44.1533H155.518L146.497 29.6145V44.1533H141.862V22.0576H146.495L155.534 36.6253V22.0576H160.153V44.1533H160.155ZM182.945 25.7451H176.053V44.1533H171.42V25.7451H164.625V22.0576H182.947V25.7451H182.945ZM201.378 34.5784H192.48V40.497H202.924V44.1533H187.846V22.0576H202.893V25.7451H192.48V31.0109H201.378V34.5784ZM212.535 40.497H222.376V44.1533H207.9V22.0576H212.532V40.497H212.535ZM240.825 34.5784H231.925V40.497H242.37V44.1533H227.293V22.0576H242.338V25.7451H231.925V31.0109H240.825V34.5784ZM265.145 41.3605C264.309 42.3418 263.131 43.1032 261.606 43.6449C260.082 44.1866 258.393 44.4574 256.539 44.4574C254.594 44.4574 252.886 44.0401 251.418 43.2054C249.951 42.3706 248.82 41.1585 248.02 39.5712C247.222 37.9817 246.813 36.1147 246.793 33.9702V32.4672C246.793 30.2628 247.171 28.3536 247.928 26.7396C248.684 25.1257 249.775 23.8914 251.204 23.0367C252.628 22.182 254.3 21.7535 256.216 21.7535C258.882 21.7535 260.969 22.3795 262.471 23.6272C263.975 24.877 264.866 26.6952 265.145 29.0839H260.634C260.426 27.8185 259.973 26.8928 259.267 26.3067C258.559 25.7206 257.59 25.4254 256.354 25.4254C254.779 25.4254 253.579 26.007 252.754 27.1725C251.931 28.3358 251.513 30.0652 251.505 32.3607V33.7726C251.505 36.0903 251.952 37.8396 252.846 39.0229C253.744 40.2084 255.057 40.7989 256.786 40.7989C258.526 40.7989 259.769 40.4348 260.51 39.7066V35.8971H256.294V32.5449H265.145V41.3605ZM279.483 36.0636H275.793V44.1533H271.158V22.0576H279.515C282.173 22.0576 284.222 22.6393 285.662 23.8026C287.106 24.9658 287.826 26.6109 287.826 28.7354C287.826 30.2428 287.494 31.4993 286.83 32.505C286.165 33.5128 285.157 34.3143 283.808 34.9114L288.676 43.9402V44.1533H283.702L279.483 36.0636ZM275.793 32.3784H279.531C280.694 32.3784 281.595 32.0854 282.233 31.5037C282.873 30.9221 283.191 30.1207 283.191 29.0995C283.191 28.0561 282.89 27.2369 282.287 26.6397C281.687 26.0425 280.762 25.7451 279.515 25.7451H275.793V32.3762V32.3784ZM306.306 39.6001H298.18L296.635 44.1533H291.709L300.081 22.0576H304.375L312.795 44.1533H307.865L306.306 39.6023V39.6001ZM299.432 35.9149H305.055L302.228 27.6432L299.432 35.9127V35.9149ZM321.788 36.3678V44.1533H317.156V22.0576H325.929C327.618 22.0576 329.103 22.3618 330.385 22.9678C331.611 23.5242 332.641 24.425 333.345 25.5564C334.034 26.673 334.378 27.9451 334.378 29.3725C334.378 31.537 333.625 33.2442 332.115 34.4941C330.606 35.7439 328.518 36.3678 325.851 36.3678H321.788ZM321.788 32.6803H325.929C327.154 32.6803 328.088 32.3962 328.731 31.8301C329.377 31.264 329.698 30.4537 329.698 29.4014C329.698 28.3203 329.375 27.4456 328.726 26.7774C328.075 26.1114 327.181 25.765 326.037 25.7451H321.788V32.6803ZM358.126 44.1533H353.494V34.6828H344.455V44.1533H339.821V22.0576H344.455V31.0109H353.494V22.0576H358.126V44.1533Z" fill="white"/>
</svg>
