<svg width="176" height="72" viewBox="0 0 176 72" fill="none" xmlns="http://www.w3.org/2000/svg">
<path d="M22.9345 18.8111H26.4584C28.6044 18.4881 30.7961 18.7721 32.7952 19.6322C35.3033 21.174 37.1225 23.6561 37.8647 26.549C38.3902 28.065 38.3902 28.065 39.6576 27.5281H40.6467V15.5265H7.4786V17.6425H8.83871C9.42976 17.6383 10.0142 17.7695 10.5491 18.0264C11.0841 18.2833 11.5559 18.6594 11.9299 19.1269C13.1973 21.2115 13.4136 23.5487 13.4136 35.7082C13.4136 48.6258 13.1354 51.7842 11.9299 53.395C11.6323 53.809 11.2469 54.149 10.8027 54.3898C10.3584 54.6304 9.86669 54.7653 9.36421 54.7846C7.4786 55.132 7.4786 55.1004 7.4786 55.9531C7.37432 56.2383 7.37432 56.5524 7.4786 56.8376H28.4058C28.5443 56.5586 28.6164 56.2501 28.6164 55.9374C28.6164 55.6246 28.5443 55.3162 28.4058 55.0373C27.8989 54.8932 27.3824 54.7876 26.8602 54.7214C26.2954 54.6528 25.7371 54.5367 25.191 54.374C24.4089 53.7907 23.7894 53.0089 23.3938 52.1061C22.998 51.2032 22.8396 50.2105 22.9345 49.2259C22.6253 47.1415 22.4707 43.3199 22.4707 40.1615V37.6664H23.7072C25.2477 37.6183 26.7873 37.7882 28.2821 38.1717C28.9983 38.6238 29.6078 39.232 30.0673 39.9526C30.5269 40.6734 30.8251 41.4887 30.9405 42.3407L31.2188 43.3199H33.1044V29.3284H31.3733L31.0951 30.6865C30.978 31.5577 30.6625 32.3888 30.174 33.1129C29.6855 33.8369 29.0375 34.4338 28.2821 34.8555C27.5506 35.0779 26.78 35.1319 26.0256 35.0134H22.4707V31.6023C22.4707 28.065 22.6562 20.6114 22.7798 19.4428L22.9345 18.8111ZM167.601 43.8567C166.14 41.454 163.861 39.6878 161.202 38.8981C159.165 38.2472 157.28 37.1718 155.669 35.7398C155.307 35.3815 155.035 34.9381 154.879 34.4481C154.723 33.9581 154.686 33.4365 154.773 32.9289C154.775 31.933 155.164 30.9789 155.854 30.2759C156.323 29.7752 156.915 29.4137 157.569 29.2301C158.221 29.0466 158.912 29.0477 159.564 29.2336C160.916 29.6272 162.137 30.3868 163.1 31.432C164.063 32.4774 164.732 33.7694 165.035 35.1714C165.53 36.5925 165.591 36.5925 166.488 36.2135L167.044 35.9925V28.1282L166.642 27.9387C163.6 26.8466 160.371 26.3954 157.153 26.6123C154.382 26.6839 151.735 27.8102 149.734 29.7706C148.827 30.6387 148.115 31.6992 147.65 32.8776C147.186 34.056 146.979 35.3239 147.045 36.5925C147.062 38.5322 147.815 40.3892 149.146 41.7723C150.618 43.2503 152.423 44.3351 154.401 44.9306C159.193 46.8572 160.584 48.0889 160.584 50.3314C160.605 51.277 160.31 52.2017 159.748 52.9536C159.187 53.7054 158.391 54.2397 157.493 54.4687C156.413 54.7111 155.296 54.7111 154.216 54.4687C152.803 53.9084 151.541 53.0113 150.536 51.8522C149.531 50.6931 148.811 49.3055 148.436 47.8046L148.034 46.794H147.477C147.211 46.8141 146.951 46.8782 146.704 46.9835H146.396V55.9531H146.921C149.009 56.663 151.164 57.1498 153.351 57.406H156.441C157.782 57.5065 159.13 57.3785 160.43 57.027C162.079 56.716 163.621 55.9693 164.901 54.8611C166.18 53.753 167.154 52.3221 167.725 50.7104C168.094 49.8102 168.283 48.8437 168.281 47.8678C168.402 46.493 168.168 45.1096 167.601 43.8567ZM138.483 27.5281C136.63 26.7335 134.634 26.3481 132.626 26.3971C130.618 26.446 128.642 26.9284 126.829 27.8124C125.125 28.6642 123.614 29.8716 122.394 31.3567C121.175 32.8418 120.274 34.5717 119.75 36.4347C119.081 38.4668 118.798 40.6107 118.915 42.7513C118.893 43.9161 118.986 45.08 119.193 46.2255C119.692 49.0422 121.023 51.6352 123.007 53.6564C124.991 55.6776 127.532 57.0302 130.291 57.5323C132.087 57.7636 133.905 57.7636 135.7 57.5323C137.564 57.1967 139.347 56.4999 140.956 55.4794C142.285 54.7178 143.41 53.633 144.231 52.3211C144.18 52.1153 144.086 51.9224 143.959 51.7541C143.832 51.5859 143.671 51.4457 143.49 51.342C143.137 51.4726 142.804 51.6532 142.501 51.8789C140.963 52.9142 139.148 53.4332 137.307 53.3634C136.086 53.4478 134.862 53.2534 133.723 52.7946C132.584 52.3357 131.56 51.6238 130.724 50.7104C130.076 50.0964 129.542 49.369 129.146 48.5626C128.187 46.5992 127.669 44.4407 127.632 42.246V41.0143H144.757V40.3826C144.795 39.7515 144.795 39.1186 144.757 38.4875C144.751 36.2574 144.167 34.0688 143.065 32.1439C141.963 30.2189 140.382 28.6264 138.483 27.5281ZM129.858 38.456H127.694V36.5925C128.405 31.8235 130.166 28.981 132.331 28.981C134.494 28.981 135.422 31.7919 135.824 36.94V38.3928H133.969L129.858 38.456ZM85.4069 26.4859C84.3388 26.4435 83.2769 26.6713 82.3157 27.1491C80.2265 28.1858 78.5391 29.91 77.5244 32.0446L77.1226 32.8026V26.4859H76.968C76.5971 26.4859 65.1597 28.823 64.7888 28.981C64.4179 29.1389 64.5415 29.1704 64.5415 29.739C64.5415 30.3075 64.5415 30.4022 64.7888 30.4338L65.9943 30.6865C66.332 30.695 66.6633 30.7818 66.9632 30.9405C67.2632 31.0991 67.5238 31.3256 67.7254 31.6023C68.4982 32.6446 68.6528 34.4765 68.6528 42.2776C68.8055 45.7895 68.6607 49.3084 68.22 52.7948C68.1163 53.3206 67.8553 53.8004 67.4734 54.1681C67.0913 54.5358 66.6069 54.7733 66.0871 54.8477L65.0362 55.0688H64.6342V55.9531C64.5221 56.2478 64.5221 56.5745 64.6342 56.8691H81.9138V55.9531C81.9738 55.651 81.9738 55.3396 81.9138 55.0373C80.8735 54.9958 79.8389 54.8584 78.8227 54.6267C78.2693 54.3309 77.8166 53.8709 77.5242 53.3071C77.2317 52.7433 77.1132 52.1023 77.1844 51.4684C76.9371 49.6365 76.8134 44.2673 76.8753 40.1615C76.9371 36.0557 76.8753 35.8029 77.2153 35.5188C78.2497 34.7084 79.5297 34.2948 80.832 34.3502C82.0595 34.3775 83.2647 34.6907 84.3558 35.2661C84.7341 35.4807 85.1399 35.6401 85.5614 35.7398C85.5614 35.7398 88.6526 28.0966 88.6526 27.7492C88.257 27.2795 87.753 26.9181 87.1863 26.6975C86.6196 26.4768 86.008 26.4042 85.4069 26.4859ZM64.5724 39.7508C64.4645 37.494 63.8303 35.296 62.7227 33.3402C61.615 31.3845 60.0659 29.7274 58.2046 28.5072C55.9926 27.2879 53.5315 26.6156 51.0191 26.5443C48.5067 26.473 46.0129 27.0047 43.738 28.0966C40.5216 29.8295 38.0931 32.7754 36.9683 36.3084C35.8065 40.2639 35.8065 44.4808 36.9683 48.4363C37.5773 50.5981 38.7157 52.5657 40.2759 54.153C42.219 56.0902 44.7244 57.3313 47.4165 57.6903C49.1445 57.8379 50.8816 57.8379 52.6096 57.6903C53.2455 57.5914 53.8751 57.4544 54.4952 57.2797C57.0114 56.5606 59.2749 55.1241 61.0212 53.1386C62.7674 51.153 63.9242 48.7003 64.3561 46.0676C64.6647 43.9775 64.7372 41.858 64.5724 39.7508ZM51.7132 55.5426C48.622 56.4901 46.3037 53.4265 45.5309 46.9835C45.2471 43.6103 45.2471 40.2184 45.5309 36.8452C46.1491 31.6656 47.7256 29.0442 50.1676 29.0442C50.6603 29.0129 51.1531 29.1027 51.6049 29.3061C52.0566 29.5094 52.4542 29.8203 52.7641 30.2127C54.8353 32.3288 55.8554 36.5294 55.8554 42.846C56.1125 46.421 55.5626 50.0085 54.2479 53.3318C53.6674 54.301 52.7693 55.0284 51.7132 55.3847V55.5426ZM107.354 27.1176C106.482 27.0029 105.599 27.0029 104.727 27.1176C103.052 27.1161 101.397 27.4823 99.8735 28.1914L98.9152 28.602V21.7484C99.0827 19.4354 99.0827 17.113 98.9152 14.8C98.5443 14.8 86.736 17.1056 86.5505 17.2003C86.4594 17.4336 86.4594 17.6935 86.5505 17.9268C86.5505 18.5901 86.5506 18.5585 87.9416 18.8743C88.3322 18.9638 88.7073 19.1129 89.0545 19.3165C89.6578 19.8962 90.0594 20.6614 90.1981 21.4957C90.5501 23.8993 90.6641 26.3329 90.5382 28.7599V56.4901L91.3729 56.6796C92.6093 56.9639 96.1023 57.5639 97.246 57.6903C99.5299 57.8759 101.825 57.8759 104.108 57.6903C106.643 57.4257 109.06 56.4594 111.097 54.8956C113.134 53.3316 114.715 51.2294 115.669 48.8153C116.238 47.2659 116.632 45.6553 116.844 44.0146C117.028 41.7923 116.955 39.5556 116.628 37.3505C116.296 34.8789 115.228 32.5712 113.569 30.7407C111.91 28.9101 109.741 27.6452 107.354 27.1176ZM99.2552 55.0057C99.2552 54.5951 98.9462 40.7616 99.0079 35.2345V30.9076L99.9045 30.6865C100.509 30.5979 101.123 30.5979 101.728 30.6865C102.397 30.617 103.07 30.7722 103.645 31.1286C104.799 31.9426 105.758 33.0136 106.448 34.2609C107.139 35.5083 107.544 36.8994 107.632 38.3297C107.857 40.6295 107.857 42.9465 107.632 45.2465C107.447 48.589 106.187 51.7756 104.047 54.3108C103.439 54.9004 102.676 55.2955 101.852 55.4478C101.228 55.5587 100.59 55.5587 99.9662 55.4478C99.3789 55.4478 99.3789 55.2584 99.3789 55.0057H99.2552Z" fill="white"/>
</svg>
